# xmcd CD database file
#
# Track frame offsets:
#	150
#	16842
#	33302
#	48877
#	63025
#	74902
#	85195
#	98097
#	107883
#	122119
#	135483
#	156917
#
# Disc length: 2329 seconds
#
# Revision: 3
# Processed by: cddbd v1.5.2PL0 Copyright (c) Steve Scherf et al.
# Submitted via: CDex 1.51
#
DISCID=9a09170c
DTITLE=Chris Whitley - Dirt Floor
DYEAR=1998
DGENRE=Blues
TTITLE0=Scrapyard Lullaby
TTITLE1=Indian Summer
TTITLE2=Accordingly
TTITLE3=Wild Country
TTITLE4=Ballpeen Hammer
TTITLE5=From One Island to Another
TTITLE6=Altitude
TTITLE7=Dirt Floor
TTITLE8=Loco Girl
TTITLE9=The Model
TTITLE10=Alien
TTITLE11=Living With The Law
EXTD=YEAR: 1998
EXTT0=
EXTT1=
EXTT2=
EXTT3=
EXTT4=
EXTT5=
EXTT6=
EXTT7=
EXTT8=
EXTT9=
EXTT10=
EXTT11=
PLAYORDER=
